<svg width="32" height="36" viewBox="0 0 32 36" fill="none" xmlns="http://www.w3.org/2000/svg">
<path id="primary" d="M22.496 13.859C23.369 12.5525 23.835 11.0164 23.835 9.445C23.835 7.33785 22.9979 5.31701 21.508 3.82704C20.018 2.33706 17.9971 1.5 15.89 1.5C14.3186 1.5 12.7825 1.96597 11.476 2.83897C10.1694 3.71198 9.15112 4.95282 8.54978 6.40458C7.94844 7.85634 7.7911 9.45381 8.09766 10.995C8.40422 12.5362 9.16091 13.9518 10.272 15.063C11.3832 16.1741 12.7988 16.9308 14.34 17.2373C15.8812 17.5439 17.4787 17.3866 18.9304 16.7852C20.3822 16.1839 21.623 15.1655 22.496 13.859ZM20.7238 20.835H11.0563C8.52178 20.835 6.09111 21.8418 4.29896 23.634C2.50682 25.4261 1.5 27.8568 1.5 30.3912C1.5 31.2164 1.82779 32.0078 2.41126 32.5912C2.99474 33.1747 3.7861 33.5025 4.61125 33.5025H27.1688C27.9939 33.5025 28.7853 33.1747 29.3687 32.5912C29.9522 32.0078 30.28 31.2164 30.28 30.3912C30.28 27.8568 29.2732 25.4261 27.481 23.634C25.6889 21.8418 23.2582 20.835 20.7238 20.835Z" stroke="white" stroke-width="3" stroke-linecap="round" stroke-linejoin="round"/>
</svg>
