<svg width="34" height="34" viewBox="0 0 34 34" fill="none" xmlns="http://www.w3.org/2000/svg">
<g id="Group 11">
<path id="Rectangle 60" d="M26 34C21.5817 34 18 30.4183 18 26L18 18L33 18C33.5523 18 34 18.4477 34 19V26C34 30.4183 30.4183 34 26 34V34Z" fill="#E846AB"/>
<path id="Rectangle 61" d="M0 16L0 0.999987C0 0.447702 0.447715 -1.33514e-05 1 -1.33514e-05H6.00001C11.5229 -1.33514e-05 16 4.47714 16 9.99999V15C16 15.5523 15.5523 16 15 16L0 16Z" fill="#F7C752"/>
<path id="Rectangle 8" d="M0 19C0 18.4477 0.447715 18 1 18H15C15.5523 18 16 18.4477 16 19V26C16 30.4183 12.4183 34 8.00001 34V34C3.58173 34 0 30.4183 0 26V19Z" fill="#46CAE8"/>
</g>
</svg>
