<svg width="31" height="31" viewBox="0 0 31 31" fill="none" xmlns="http://www.w3.org/2000/svg">
<path id="Vector" d="M28.7143 28.7143L20.8571 20.8571M29.5 29.5L24 24M24 13C24 15.1756 23.3549 17.3023 22.1462 19.1113C20.9375 20.9202 19.2195 22.3301 17.2095 23.1627C15.1995 23.9952 12.9878 24.2131 10.854 23.7886C8.72022 23.3642 6.76021 22.3165 5.22183 20.7782C3.68345 19.2398 2.6358 17.2798 2.21137 15.146C1.78693 13.0122 2.00477 10.8005 2.83733 8.79048C3.66989 6.78049 5.07979 5.06253 6.88873 3.85383C8.69767 2.64514 10.8244 2 13 2C15.9174 2 18.7153 3.15892 20.7782 5.22182C22.8411 7.28472 24 10.0826 24 13Z" stroke="white" stroke-width="3" stroke-linecap="round" stroke-linejoin="round"/>
</svg>
