<svg width="60" height="60" viewBox="0 0 60 60" fill="none" xmlns="http://www.w3.org/2000/svg">
<g filter="url(#filter0_d_51_23)">
<path fill-rule="evenodd" clip-rule="evenodd" d="M30 48C41.0457 48 50 39.0457 50 28C50 16.9543 41.0457 8 30 8C18.9543 8 10 16.9543 10 28C10 39.0457 18.9543 48 30 48Z" fill="white"/>
</g>
<path d="M37.3168 23.2406C36.7363 23.4847 36.1178 23.6465 35.4729 23.7251C36.1363 23.3453 36.6426 22.7486 36.8807 22.0293C36.2622 22.3828 35.5792 22.6326 34.8514 22.772C34.2641 22.1724 33.427 21.801 32.5139 21.801C30.7422 21.801 29.3158 23.1798 29.3158 24.87C29.3158 25.1132 29.3373 25.3471 29.39 25.5697C26.7295 25.4453 24.3753 24.2227 22.7939 22.3604C22.5178 22.8197 22.3558 23.3453 22.3558 23.9113C22.3558 24.9739 22.9265 25.9158 23.7773 26.4611C23.2631 26.4518 22.7587 26.3086 22.3314 26.0832C22.3314 26.0926 22.3314 26.1047 22.3314 26.1169C22.3314 27.6079 23.4407 28.8463 24.8953 29.1316C24.6348 29.1999 24.3509 29.2327 24.0563 29.2327C23.8514 29.2327 23.6446 29.2214 23.4504 29.1803C23.8651 30.3953 25.0417 31.2886 26.4407 31.3176C25.3519 32.1342 23.9695 32.6262 22.4729 32.6262C22.2104 32.6262 21.9587 32.615 21.707 32.5841C23.1246 33.4606 24.8046 33.961 26.6163 33.961C32.5051 33.961 35.7246 29.2841 35.7246 25.2301C35.7246 25.0945 35.7197 24.9636 35.7129 24.8335C36.348 24.4014 36.8817 23.8617 37.3168 23.2406Z" fill="#46CAE8"/>
<defs>
<filter id="filter0_d_51_23" x="0" y="0" width="60" height="60" filterUnits="userSpaceOnUse" color-interpolation-filters="sRGB">
<feFlood flood-opacity="0" result="BackgroundImageFix"/>
<feColorMatrix in="SourceAlpha" type="matrix" values="0 0 0 0 0 0 0 0 0 0 0 0 0 0 0 0 0 0 127 0" result="hardAlpha"/>
<feOffset dy="2"/>
<feGaussianBlur stdDeviation="5"/>
<feColorMatrix type="matrix" values="0 0 0 0 0 0 0 0 0 0 0 0 0 0 0 0 0 0 0.1 0"/>
<feBlend mode="normal" in2="BackgroundImageFix" result="effect1_dropShadow_51_23"/>
<feBlend mode="normal" in="SourceGraphic" in2="effect1_dropShadow_51_23" result="shape"/>
</filter>
</defs>
</svg>
