<svg width="294" height="87" viewBox="0 0 294 87" fill="none" xmlns="http://www.w3.org/2000/svg">
<path d="M209.821 84.0171C227.285 85.3605 244.801 84.6418 262.242 84.6418C276.747 84.6418 291.186 82.0458 291.186 64.9566C291.186 57.7873 291.186 50.618 291.186 43.4487C291.186 37.881 292.641 30.3507 291.114 25.0029C287.542 12.5012 267.146 10.6529 256.336 8.81729C223.832 3.29769 189.07 5.90096 155.723 5.90096C146.261 5.90096 137.253 1.96392 127.726 1.96392C124.202 1.96392 120.678 1.96392 117.155 1.96392C101.479 1.96392 85.8041 1.96392 70.1288 1.96392C55.2312 1.96392 40.3337 1.96392 25.4361 1.96392C14.9548 1.96392 2.47002 0.0707083 2.47002 13.775C2.47002 24.2974 2.43567 33.6681 5.16762 43.23C5.98076 46.0759 10.2377 50.9534 11.9481 52.8538C14.6638 55.8712 15.9664 60.1734 18.5098 63.3526C26.5701 73.428 40.0382 76.7677 52.2663 76.7677C58.3096 76.7677 64.6899 77.3413 70.7121 76.7677C81.7279 75.7186 91.4784 72.206 102.938 72.206C117.373 72.206 131.809 72.206 146.245 72.206C153.419 72.206 160.132 72.8334 167.17 73.4454C171.885 73.8555 175.461 76.6592 180.22 77.747C185.837 79.0309 192.341 82.3898 198.01 82.7048C208.644 83.2955 218.847 85.3295 229.506 85.3295" stroke="#46CAE8" stroke-width="3" stroke-linecap="round"/>
</svg>
