<svg width="32" height="35" viewBox="0 0 32 35" fill="none" xmlns="http://www.w3.org/2000/svg">
<path d="M14.0547 11.1054C12.9597 11.504 11.9313 11.503 10.9696 11.1024C10.0263 10.6625 9.37108 9.93828 9.00398 8.92968C8.63688 7.92107 8.67852 6.95951 9.12889 6.04498C9.5976 5.09116 10.3795 4.41496 11.4745 4.01639C12.5408 3.62831 13.5456 3.65421 14.4889 4.0941C15.4218 4.50517 16.0717 5.21501 16.4388 6.22361C16.8059 7.23222 16.7695 8.20819 16.3297 9.15153C15.8793 10.0661 15.121 10.7174 14.0547 11.1054ZM26.1748 10.5124L28.0942 15.7859L6.04905 23.8097L4.12963 18.5361L26.1748 10.5124ZM20.993 30.168C19.8979 30.5666 18.8695 30.5656 17.9079 30.165C16.9645 29.7251 16.3093 29.0009 15.9422 27.9923C15.5751 26.9837 15.6167 26.0221 16.0671 25.1076C16.5358 24.1538 17.3177 23.4776 18.4128 23.079C19.479 22.6909 20.4838 22.7168 21.4271 23.1567C22.36 23.5678 23.0099 24.2776 23.3771 25.2862C23.7442 26.2948 23.7078 27.2708 23.2679 28.2141C22.8175 29.1287 22.0592 29.78 20.993 30.168Z" fill="#46CAE8"/>
</svg>
