<svg width="36" height="28" viewBox="0 0 36 28" fill="none" xmlns="http://www.w3.org/2000/svg">
<g id="Vector">
<path d="M0 23.2373C0 24.4033 0.463175 25.5215 1.28763 26.346C2.11209 27.1704 3.23029 27.6336 4.39625 27.6336H30.7737C31.9397 27.6336 33.0579 27.1704 33.8824 26.346C34.7068 25.5215 35.17 24.4033 35.17 23.2373V11.1476H0V23.2373ZM5.18129 17.271C5.18129 16.6464 5.42942 16.0473 5.8711 15.6057C6.31277 15.164 6.91181 14.9159 7.53643 14.9159H11.3046C11.9293 14.9159 12.5283 15.164 12.97 15.6057C13.4116 16.0473 13.6598 16.6464 13.6598 17.271V18.8411C13.6598 19.4657 13.4116 20.0647 12.97 20.5064C12.5283 20.9481 11.9293 21.1962 11.3046 21.1962H7.53643C6.91181 21.1962 6.31277 20.9481 5.8711 20.5064C5.42942 20.0647 5.18129 19.4657 5.18129 18.8411V17.271Z" fill="white"/>
<path d="M30.7737 0H4.39625C3.23029 0 2.11209 0.463175 1.28763 1.28763C0.463175 2.11209 0 3.23029 0 4.39625V6.43737H35.17V4.39625C35.17 3.23029 34.7068 2.11209 33.8824 1.28763C33.0579 0.463175 31.9397 0 30.7737 0Z" fill="white"/>
</g>
</svg>
