<svg width="60" height="60" viewBox="0 0 60 60" fill="none" xmlns="http://www.w3.org/2000/svg">
<path d="M49.2132 19.6379L50.6274 21.0521L52.0416 19.6379L50.6274 18.2237L49.2132 19.6379ZM39.1242 29.7269L37.71 28.3127L36.2958 29.7269L37.71 31.1411L39.1242 29.7269ZM49.4451 40.0478L50.8593 41.462L52.2735 40.0478L50.8593 38.6336L49.4451 40.0478ZM40.0519 49.441L38.6377 50.8552L40.0519 52.2694L41.4661 50.8552L40.0519 49.441ZM29.731 39.1201L31.1452 37.7059L29.731 36.2917L28.3168 37.7059L29.731 39.1201ZM19.642 49.2091L18.2278 50.6233L19.642 52.0375L21.0562 50.6233L19.642 49.2091ZM10.7706 40.3377L9.3564 38.9235L7.94219 40.3377L9.3564 41.7519L10.7706 40.3377ZM20.8596 30.2487L22.2738 31.6629L23.688 30.2487L22.2738 28.8345L20.8596 30.2487ZM10.4807 19.8698L9.06649 18.4556L7.65227 19.8698L9.06649 21.284L10.4807 19.8698ZM19.8739 10.4766L21.2881 9.06239L19.8739 7.64818L18.4597 9.06239L19.8739 10.4766ZM30.2528 20.8555L28.8386 22.2697L30.2528 23.6839L31.667 22.2697L30.2528 20.8555ZM40.3418 10.7665L41.756 9.3523L40.3418 7.93809L38.9276 9.3523L40.3418 10.7665ZM47.799 18.2237L37.71 28.3127L40.5384 31.1411L50.6274 21.0521L47.799 18.2237ZM37.71 31.1411L48.0309 41.462L50.8593 38.6336L40.5384 28.3127L37.71 31.1411ZM48.0309 38.6336L38.6377 48.0268L41.4661 50.8552L50.8593 41.462L48.0309 38.6336ZM41.4661 48.0268L31.1452 37.7059L28.3168 40.5343L38.6377 50.8552L41.4661 48.0268ZM28.3168 37.7059L18.2278 47.7949L21.0562 50.6233L31.1452 40.5343L28.3168 37.7059ZM21.0562 47.7949L12.1848 38.9235L9.3564 41.7519L18.2278 50.6233L21.0562 47.7949ZM12.1848 41.7519L22.2738 31.6629L19.4454 28.8345L9.3564 38.9235L12.1848 41.7519ZM22.2738 28.8345L11.8949 18.4556L9.06649 21.284L19.4454 31.6629L22.2738 28.8345ZM11.8949 21.284L21.2881 11.8908L18.4597 9.06239L9.06649 18.4556L11.8949 21.284ZM18.4597 11.8908L28.8386 22.2697L31.667 19.4413L21.2881 9.06239L18.4597 11.8908ZM31.667 22.2697L41.756 12.1807L38.9276 9.3523L28.8386 19.4413L31.667 22.2697ZM38.9276 12.1807L47.799 21.0521L50.6274 18.2237L41.756 9.3523L38.9276 12.1807Z" fill="#E8BA46"/>
</svg>
